<svg xmlns="http://www.w3.org/2000/svg" xmlns:xlink="http://www.w3.org/1999/xlink" viewBox="0,0,256,256" width="96px" height="96px" fill-rule="nonzero"><g fill="#ffffff" fill-rule="nonzero" stroke="none" stroke-width="1" stroke-linecap="butt" stroke-linejoin="miter" stroke-miterlimit="10" stroke-dasharray="" stroke-dashoffset="0" font-family="none" font-weight="none" font-size="none" text-anchor="none" style="mix-blend-mode: normal"><g transform="scale(5.33333,5.33333)"><path d="M12,3c-1.875,0 -3.47118,0.75713 -4.49609,1.91016c-1.02491,1.15302 -1.50391,2.63151 -1.50391,4.08984c0,1.45833 0.479,2.93682 1.50391,4.08984c1.02491,1.15302 2.62109,1.91016 4.49609,1.91016c1.875,0 3.47119,-0.75713 4.49609,-1.91016c1.02491,-1.15302 1.50391,-2.63151 1.50391,-4.08984c0,-1.45833 -0.479,-2.93682 -1.50391,-4.08984c-1.02491,-1.15302 -2.62109,-1.91016 -4.49609,-1.91016zM26,3c-1.875,0 -3.47118,0.75713 -4.49609,1.91016c-1.02491,1.15302 -1.50391,2.63151 -1.50391,4.08984c0,1.45833 0.479,2.93682 1.50391,4.08984c1.02491,1.15302 2.62109,1.91016 4.49609,1.91016c1.875,0 3.47118,-0.75713 4.49609,-1.91016c1.02491,-1.15302 1.50391,-2.63151 1.50391,-4.08984c0,-1.45833 -0.479,-2.93682 -1.50391,-4.08984c-1.02491,-1.15302 -2.62109,-1.91016 -4.49609,-1.91016zM12,6c1.125,0 1.77882,0.36787 2.25391,0.90234c0.47509,0.53448 0.74609,1.30599 0.74609,2.09766c0,0.79167 -0.271,1.56318 -0.74609,2.09766c-0.47509,0.53448 -1.12891,0.90234 -2.25391,0.90234c-1.125,0 -1.77882,-0.36787 -2.25391,-0.90234c-0.47509,-0.53448 -0.74609,-1.30599 -0.74609,-2.09766c0,-0.79167 0.271,-1.56318 0.74609,-2.09766c0.47509,-0.53448 1.12891,-0.90234 2.25391,-0.90234zM26,6c1.125,0 1.77882,0.36787 2.25391,0.90234c0.47509,0.53448 0.74609,1.30599 0.74609,2.09766c0,0.79167 -0.271,1.56318 -0.74609,2.09766c-0.47509,0.53448 -1.12891,0.90234 -2.25391,0.90234c-1.125,0 -1.77882,-0.36787 -2.25391,-0.90234c-0.47509,-0.53448 -0.74609,-1.30599 -0.74609,-2.09766c0,-0.79167 0.271,-1.56318 0.74609,-2.09766c0.47509,-0.53448 1.12891,-0.90234 2.25391,-0.90234zM6.5,17c-1.93,0 -3.5,1.57 -3.5,3.5v9.5c0,4.963 4.038,9 9,9c2.104,0 4.03631,-0.73131 5.57031,-1.94531c-0.647,-0.772 -1.18356,-1.63641 -1.60156,-2.56641c-1.059,0.937 -2.44675,1.51172 -3.96875,1.51172c-3.309,0 -6,-2.691 -6,-6v-9.5c0,-0.275 0.224,-0.5 0.5,-0.5h8.52539c0.103,-1.133 0.54833,-2.169 1.23633,-3zM20.5,17c-1.93,0 -3.5,1.57 -3.5,3.5v9.5c0,4.963 4.038,9 9,9c0.979,0 1.91973,-0.16117 2.80273,-0.45117v-3.24609c-0.837,0.444 -1.79073,0.69727 -2.80273,0.69727c-3.309,0 -6,-2.691 -6,-6v-9.5c0,-0.275 0.224,-0.5 0.5,-0.5h11c0.276,0 0.5,0.225 0.5,0.5v0.51563c0.638,0.039 1.26067,0.26941 1.76367,0.69141l1.23633,1.04883v-2.25586c0,-1.93 -1.57,-3.5 -3.5,-3.5zM32.13477,23.30859c-0.18725,-0.02512 -0.38109,0.00248 -0.55859,0.08398c-0.346,0.163 -0.57617,0.51834 -0.57617,0.90234v17.00195c0,0.423 0.26711,0.79545 0.66211,0.93945c0.393,0.143 0.83747,0.03012 1.10547,-0.29687l2.97461,-3.57227l2.95508,6.50586c0.438,0.962 1.5682,1.39098 2.5332,0.95898l0.94922,-0.42578c0.972,-0.435 1.40289,-1.57692 0.96289,-2.54492l-2.98437,-6.46094h4.83984c0.423,0 0.79741,-0.36577 0.94141,-0.75977c0.144,-0.394 0.02794,-0.83552 -0.28906,-1.10352l-13,-11.00195c-0.1485,-0.125 -0.32838,-0.20144 -0.51562,-0.22656z"></path></g></g></svg>