<svg xmlns="http://www.w3.org/2000/svg"  viewBox="0 0 48 48" width="96px" height="96px"><path d="M 11.5 6 C 8.4802259 6 6 8.4802259 6 11.5 L 6 31.5 C 6 34.519774 8.4802259 37 11.5 37 L 12.101562 37 C 12.36892 39.777031 14.657171 42 17.5 42 L 36.5 42 C 39.519774 42 42 39.519774 42 36.5 L 42 16.5 C 42 13.480226 39.519774 11 36.5 11 L 35.898438 11 C 35.631081 8.2229693 33.342829 6 30.5 6 L 11.5 6 z M 11.5 9 L 30.5 9 C 31.898226 9 33 10.101774 33 11.5 L 33 12.5 A 1.50015 1.50015 0 0 0 34.5 14 L 36.5 14 C 37.898226 14 39 15.101774 39 16.5 L 39 36.5 C 39 37.898226 37.898226 39 36.5 39 L 17.5 39 C 16.101774 39 15 37.898226 15 36.5 L 15 35.5 A 1.50015 1.50015 0 0 0 13.5 34 L 11.5 34 C 10.101774 34 9 32.898226 9 31.5 L 9 11.5 C 9 10.101774 10.101774 9 11.5 9 z M 17.476562 10.978516 A 1.50015 1.50015 0 0 0 16 12.5 L 16 13 L 12.5 13 A 1.50015 1.50015 0 1 0 12.5 16 L 17.253906 16 A 1.50015 1.50015 0 0 0 17.740234 16 L 18.826172 16 C 18.681353 17.057301 18.398941 18.010391 17.888672 18.761719 C 17.452022 18.634378 17.005788 18.534457 16.582031 18.251953 C 15.960039 17.837292 15.560547 17.439453 15.560547 17.439453 A 1.50015 1.50015 0 1 0 13.439453 19.560547 C 13.439453 19.560547 14.033481 20.105364 14.773438 20.630859 C 14.09164 20.795937 13.479515 21 12.5 21 A 1.50015 1.50015 0 1 0 12.5 24 C 15.198459 24 17.132651 23.158191 18.65625 21.994141 A 1.50015 1.50015 0 0 0 19.910156 21.068359 C 19.957036 21.013119 20.046817 20.990109 20.091797 20.933594 C 21.254015 19.473215 21.655108 17.731617 21.824219 16 L 22.5 16 A 1.50015 1.50015 0 1 0 22.5 13 L 20.746094 13 A 1.50015 1.50015 0 0 0 20.259766 13 L 19 13 L 19 12.5 A 1.50015 1.50015 0 0 0 17.476562 10.978516 z M 29.5 15 A 1.5 1.5 0 0 0 29.5 18 A 1.5 1.5 0 0 0 29.5 15 z M 25.5 20 A 1.5 1.5 0 0 0 25.5 23 A 1.5 1.5 0 0 0 25.5 20 z M 29.921875 23.001953 A 1.50015 1.50015 0 0 0 28.632812 23.884766 L 24.132812 33.884766 A 1.50015 1.50015 0 1 0 26.867188 35.115234 L 27.255859 34.25 L 32.744141 34.25 L 33.132812 35.115234 A 1.50015 1.50015 0 1 0 35.867188 33.884766 L 31.367188 23.884766 A 1.50015 1.50015 0 0 0 29.921875 23.001953 z M 21.5 25 A 1.5 1.5 0 0 0 21.5 28 A 1.5 1.5 0 0 0 21.5 25 z M 30 28.154297 L 31.392578 31.25 L 28.607422 31.25 L 30 28.154297 z M 17.5 30 A 1.5 1.5 0 0 0 17.5 33 A 1.5 1.5 0 0 0 17.5 30 z"/></svg>